<svg xmlns="http://www.w3.org/2000/svg" width="19" height="22" fill="none"  xmlns:v="https://vecta.io/nano"><g clip-path="url(#A)"><path d="M7.459 22h7.088c1.637 0 2.969-1.542 2.969-3.437V6.918c0-1.895-1.332-3.438-2.969-3.438H7.459c-1.637 0-2.969 1.542-2.969 3.438v11.645C4.49 20.458 5.822 22 7.459 22zm7.088-16.801c.818 0 1.484.771 1.484 1.719v11.645c0 .948-.666 1.719-1.484 1.719H7.459c-.818 0-1.484-.771-1.484-1.719V6.918c0-.948.666-1.719 1.484-1.719h7.088zM1.521 16.414V3.438C1.521 1.542 2.853 0 4.49 0h8.238c.41 0 .742.385.742.859s-.332.859-.742.859H4.49c-.818 0-1.484.771-1.484 1.719v12.977c0 .475-.332.859-.742.859s-.742-.385-.742-.859z" fill="#fff"/></g><defs><clipPath id="A"><path fill="#fff" transform="matrix(-1 0 0 1 19 0)" d="M0 0h19v22H0z"/></clipPath></defs></svg>