<?xml version="1.0" standalone="no"?>
<!DOCTYPE svg PUBLIC "-//W3C//DTD SVG 20010904//EN"
 "http://www.w3.org/TR/2001/REC-SVG-20010904/DTD/svg10.dtd">
<svg version="1.0" xmlns="http://www.w3.org/2000/svg"
 width="200.000000pt" height="200.000000pt" viewBox="0 0 200.000000 200.000000"
 preserveAspectRatio="xMidYMid meet">
<metadata>
Created by potrace 1.11, written by Peter Selinger 2001-2013
</metadata>
<g transform="translate(0.000000,200.000000) scale(0.100000,-0.100000)"
fill="#000000" stroke="none">
<path d="M0 1000 l0 -1000 1000 0 1000 0 0 1000 0 1000 -1000 0 -1000 0 0
-1000z m712 323 c56 -26 137 -98 164 -148 l19 -35 383 0 c414 0 423 -1 472
-55 21 -22 25 -37 25 -85 0 -48 -4 -63 -25 -85 -22 -25 -76 -55 -97 -55 -5 0
-26 16 -48 35 -22 19 -42 35 -46 35 -3 0 -20 -16 -39 -35 l-34 -35 -37 36 -38
37 -42 -37 -43 -36 -38 37 -38 37 -37 -36 -36 -37 -44 36 -44 36 -37 -36 c-35
-34 -42 -37 -98 -37 -58 0 -60 -1 -78 -35 -27 -49 -108 -122 -164 -148 -38
-17 -66 -22 -142 -22 -84 0 -102 3 -152 28 -69 34 -131 94 -166 162 -24 45
-27 61 -27 155 0 91 3 111 24 150 46 87 111 146 199 181 64 26 197 22 264 -8z"/>
<path d="M349 1071 c-64 -65 -20 -171 71 -171 58 0 100 42 100 100 0 91 -106
135 -171 71z"/>
</g>
</svg>
